HIERARCHY
ROOT Hips
{
	OFFSET 0.000000 0.000000 0.000000
	CHANNELS 6 Xposition Yposition Zposition Zrotation Yrotation Xrotation 
	JOINT LHipJoint
	{
		OFFSET 0.069520 -0.091406 -0.006815
		CHANNELS 3 Zrotation Yrotation Xrotation
		JOINT LeftLeg
		{
			OFFSET 0.034277 -0.375199 -0.004496
			CHANNELS 3 Zrotation Yrotation Xrotation
			JOINT LeftFoot
			{
				OFFSET -0.013596 -0.397961 -0.043693
				CHANNELS 3 Zrotation Yrotation Xrotation
				JOINT LeftToeBase
				{
					OFFSET 0.026358 -0.055791 0.119288
					CHANNELS 3 Zrotation Yrotation Xrotation
					End Site
					{
						OFFSET 0.000000 0.000000 0.000000
					}
				}
			}
		}
	}
	JOINT RHipJoint
	{
		OFFSET -0.067670 -0.090522 -0.004320
		CHANNELS 3 Zrotation Yrotation Xrotation
		JOINT RightLeg
		{
			OFFSET -0.038290 -0.382569 -0.008850
			CHANNELS 3 Zrotation Yrotation Xrotation
			JOINT RightFoot
			{
				OFFSET 0.015774 -0.398415 -0.042312
				CHANNELS 3 Zrotation Yrotation Xrotation
				JOINT RightToeBase
				{
					OFFSET -0.025372 -0.048144 0.123348
					CHANNELS 3 Zrotation Yrotation Xrotation
					End Site
					{
						OFFSET 0.000000 0.000000 0.000000
					}
				}
			}
		}
	}
	JOINT LowerBack
	{
		OFFSET -0.002533 0.108963 -0.026696
		CHANNELS 3 Zrotation Yrotation Xrotation
		JOINT Spine1
		{
			OFFSET 0.005487 0.135180 0.001092
			CHANNELS 3 Zrotation Yrotation Xrotation
			JOINT Spine2
			{
				OFFSET 0.001457 0.052922 0.025425
				CHANNELS 3 Zrotation Yrotation Xrotation
				JOINT Neck
				{
					OFFSET -0.002778 0.213870 -0.042857
					CHANNELS 3 Zrotation Yrotation Xrotation
					JOINT Neck1
					{
						OFFSET 0.005152 0.064970 0.051349
						CHANNELS 3 Zrotation Yrotation Xrotation
						End Site
						{
							OFFSET 0.000000 0.000000 0.000000
						}
					}
				}
				JOINT LeftShoulder
				{
					OFFSET 0.078845 0.121749 -0.034090
					CHANNELS 3 Zrotation Yrotation Xrotation
					JOINT LeftArm
					{
						OFFSET 0.090977 0.030469 -0.008868
						CHANNELS 3 Zrotation Yrotation Xrotation
						JOINT LeftForeArm
						{
							OFFSET 0.259612 -0.012772 -0.027456
							CHANNELS 3 Zrotation Yrotation Xrotation
							JOINT LeftHand
							{
								OFFSET 0.249234 0.008986 -0.001171
								CHANNELS 3 Zrotation Yrotation Xrotation
								End Site
								{
									OFFSET 0.000000 0.000000 0.000000
								}
							}
						}
					}
				}
				JOINT RightShoulder
				{
					OFFSET -0.081759 0.118833 -0.038615
					CHANNELS 3 Zrotation Yrotation Xrotation
					JOINT RightArm
					{
						OFFSET -0.096012 0.032551 -0.009143
						CHANNELS 3 Zrotation Yrotation Xrotation
						JOINT RightForeArm
						{
							OFFSET -0.253742 -0.013329 -0.021401
							CHANNELS 3 Zrotation Yrotation Xrotation
							JOINT RightHand
							{
								OFFSET -0.255298 0.007772 -0.005559
								CHANNELS 3 Zrotation Yrotation Xrotation
								End Site
								{
									OFFSET 0.000000 0.000000 0.000000
								}
							}
						}
					}
				}
			}
		}
	}
}
MOTION
Frames: 17
Frame Time: 0.050000
-0.003354 1.324129 0.181081 -0.750890 -1.846754 4.525412 2.879773 -0.979205 -14.388441 -0.629352 -0.115030 7.032786 -3.683446 5.204549 32.579005 0.000000 0.000000 0.000000 -3.957595 1.319841 -17.283798 3.640895 -0.190321 15.976144 -0.752427 -11.418565 32.928057 0.000000 0.000000 0.000000 -0.012396 -0.041162 1.016403 0.198747 0.089538 -7.528707 -0.560244 1.477920 10.309380 -1.309570 1.978184 -15.764697 0.000000 0.000000 0.000000 6.669923 -4.506060 1.779631 -25.040231 -23.737540 0.874148 85.364505 -54.116194 -46.797823 0.000000 0.000000 0.000000 -10.897479 4.985722 1.926910 26.355308 13.102881 -0.386472 -100.168940 54.651249 -57.913559 0.000000 0.000000 0.000000 
-0.003740 1.283530 0.185963 -1.444164 -2.710570 4.363478 3.706796 -0.825024 -13.484152 -1.222979 0.024894 5.581759 -4.076754 5.637935 36.450334 0.000000 0.000000 0.000000 -2.137074 1.506631 -16.851375 2.865108 0.052583 16.816543 -0.662582 -11.432557 32.645833 0.000000 0.000000 0.000000 0.406867 -0.087971 1.751406 -1.225994 0.618555 -5.345434 1.898273 1.469675 9.450073 -2.347200 2.636430 -19.312235 0.000000 0.000000 0.000000 -0.542193 0.265962 -0.135649 -33.537252 -14.856085 -0.505491 83.219513 -77.517291 -66.158054 0.000000 0.000000 0.000000 -5.852265 1.287669 0.833626 37.210485 8.865691 -1.362451 -104.568453 74.682759 -84.403519 0.000000 0.000000 0.000000 
-0.004870 1.225679 0.194029 -1.485154 -1.556684 4.527350 4.875015 -0.711866 -13.060154 -2.446512 0.186723 8.383929 -3.519661 6.133433 35.227457 0.000000 0.000000 0.000000 -3.053868 1.404663 -17.142592 5.076333 -0.553841 18.008537 -3.188659 -14.175512 31.286283 0.000000 0.000000 0.000000 -0.772374 -0.032851 1.509853 0.176695 0.059279 -5.721114 2.295536 -0.967458 10.618749 -3.274791 2.955064 -19.178758 0.000000 0.000000 0.000000 -7.238051 6.034773 -2.926279 -37.304942 -4.400929 -3.566075 -62.180895 -78.608715 57.976693 0.000000 0.000000 0.000000 -2.106564 0.690718 0.426538 43.375790 0.299281 -4.525473 70.004757 83.979230 67.174471 0.000000 0.000000 0.000000 
-0.006517 1.152667 0.202253 -1.399683 -2.848202 2.833715 4.652374 -0.520912 -9.329922 -1.563869 0.016771 10.161264 -4.269122 4.667835 33.634456 0.000000 0.000000 0.000000 -3.568046 1.257423 -15.745616 7.641117 -1.223985 22.003219 -3.758172 -14.403818 25.130174 0.000000 0.000000 0.000000 -0.400414 -0.103483 2.979453 -0.458988 0.308470 -6.051218 1.649423 -0.220258 13.077036 -2.325651 2.458961 -20.392129 0.000000 0.000000 0.000000 -7.680211 7.062560 -3.401974 -43.560804 6.333773 -7.809508 -56.757758 -63.800294 41.664339 0.000000 0.000000 0.000000 1.981118 -2.868421 -1.231627 48.083549 -7.364524 -8.146358 60.060215 64.926432 42.248795 0.000000 0.000000 0.000000 
-0.008192 1.063221 0.208268 -1.050961 -3.965171 2.743210 3.826680 -0.517122 -8.420721 -0.296144 -0.311860 14.579312 -3.117249 1.522378 19.075263 0.000000 0.000000 0.000000 -3.063057 1.400607 -16.576973 7.222331 -1.045066 27.689807 -3.437790 -11.997893 12.393341 0.000000 0.000000 0.000000 -0.058081 -0.138603 3.504251 -2.383499 1.076022 -7.661393 2.303800 -1.582982 16.578340 -3.810590 3.067278 -20.209044 0.000000 0.000000 0.000000 -10.818575 12.173807 -5.921688 -45.493838 12.378888 -10.461426 -47.550187 -48.204818 26.230894 0.000000 0.000000 0.000000 6.484580 -1.420113 -1.362073 50.293002 -12.257150 -10.869671 47.817405 50.818961 24.424409 0.000000 0.000000 0.000000 
-0.009293 0.985953 0.207761 -0.193268 -2.364890 1.415716 3.341620 -0.656091 -10.170446 -1.815003 -0.073835 25.251027 1.712216 1.809522 -4.696480 0.000000 0.000000 0.000000 -3.280007 1.471348 -18.370779 8.308517 -1.846108 38.402350 -6.685339 -15.659106 -6.417725 0.000000 0.000000 0.000000 -0.670275 -0.233163 7.210452 -1.234641 0.646796 -7.147795 0.810927 -0.721179 16.603033 -1.936253 2.342741 -24.723167 0.000000 0.000000 0.000000 -12.192248 9.537201 -5.073324 -48.345993 15.491551 -12.441165 -38.126910 -36.685318 15.420022 0.000000 0.000000 0.000000 9.632831 -3.851833 -2.634925 49.843728 -16.181309 -12.214594 46.307444 41.588044 19.214776 0.000000 0.000000 0.000000 
-0.009878 0.954992 0.204080 0.811369 -0.438664 0.505823 2.560402 -1.003133 -14.124403 -3.671251 0.412811 33.180316 3.649477 2.876319 -12.787017 0.000000 0.000000 0.000000 -3.973203 1.394699 -19.590520 8.490101 -2.508016 44.241100 -7.716562 -18.536310 -9.598833 0.000000 0.000000 0.000000 -0.758188 -0.366198 11.169586 -1.159868 0.656367 -7.468964 -0.014533 -2.236115 16.585388 -1.789166 2.267778 -26.693705 0.000000 0.000000 0.000000 -12.384230 9.443733 -4.996194 -48.211347 16.949511 -12.947918 -36.277047 -29.347037 11.663219 0.000000 0.000000 0.000000 9.752343 -4.048961 -2.778683 51.986895 -19.482261 -14.222412 43.300560 38.557900 16.428537 0.000000 0.000000 0.000000 
-0.011014 0.964334 0.202677 0.764155 -1.376241 1.911065 2.580388 -1.108025 -15.899016 -4.655525 0.955245 32.462678 4.125032 5.180777 -11.046432 0.000000 0.000000 0.000000 -2.274918 1.720069 -20.041172 5.556080 -0.740618 41.456962 -7.280516 -17.474291 -6.045350 0.000000 0.000000 0.000000 -0.764365 -0.333636 10.566443 -1.349680 0.712084 -7.310964 0.911865 -0.982263 17.070580 -3.554805 3.302362 -27.765412 0.000000 0.000000 0.000000 -10.889836 8.562113 -4.453176 -47.851276 20.181714 -13.995490 -39.413212 -27.606826 11.730522 0.000000 0.000000 0.000000 9.087442 -4.644603 -2.872329 51.565731 -22.286427 -15.208835 48.203924 37.560020 17.909475 0.000000 0.000000 0.000000 
-0.012547 0.988107 0.201334 1.850637 -1.981072 4.471933 1.067790 -1.421510 -17.585266 -5.021386 1.105534 28.921553 3.856280 5.412447 -8.930727 0.000000 0.000000 0.000000 -2.526094 1.726168 -20.183644 4.467938 -0.164459 36.508616 -6.299730 -15.374257 -2.208819 0.000000 0.000000 0.000000 -1.585832 -0.199963 9.524468 -0.730097 0.448171 -7.052853 0.324068 -1.229292 15.997467 -5.403060 4.161239 -26.894366 0.000000 0.000000 0.000000 -9.074939 9.586423 -4.651440 -45.911002 21.383848 -13.554792 -42.484642 -27.270430 12.461691 0.000000 0.000000 0.000000 6.684567 -4.201268 -2.403845 51.045663 -25.791412 -16.363699 55.293381 37.644652 20.529685 0.000000 0.000000 0.000000 
-0.015103 1.003312 0.198895 1.868550 -1.708140 6.603918 0.424693 -1.764549 -20.632173 -4.606818 0.910466 28.841747 3.247035 4.430343 -7.369684 0.000000 0.000000 0.000000 -1.762948 1.952774 -21.522069 3.951875 -0.028334 34.127459 -6.117567 -15.349790 0.272040 0.000000 0.000000 0.000000 -1.126315 -0.229173 8.977876 -0.726148 0.456847 -7.392855 0.233706 -1.109894 15.862207 -5.227597 4.096355 -26.583899 0.000000 0.000000 0.000000 -7.470478 7.951527 -3.749981 -45.005237 19.934542 -12.725808 -47.048990 -30.666097 15.510411 0.000000 0.000000 0.000000 5.344836 -4.525167 -2.332399 49.017399 -27.304930 -16.109599 60.979358 37.966204 23.073849 0.000000 0.000000 0.000000 
-0.018442 1.001589 0.194392 1.680897 -1.505293 7.929168 0.801048 -1.937903 -23.508013 -4.756958 0.974790 30.323746 3.807996 6.357326 -5.854649 0.000000 0.000000 0.000000 -1.500817 2.183963 -23.615433 3.465039 0.149485 34.564001 -5.971086 -15.224595 1.532405 0.000000 0.000000 0.000000 -0.503285 -0.346371 10.412691 -1.095424 0.609092 -7.810836 0.472614 -2.060797 15.618586 -4.862526 3.770689 -27.678272 0.000000 0.000000 0.000000 -8.346515 6.638614 -3.216211 -44.303510 16.500715 -11.322251 -49.431255 -36.617443 19.792339 0.000000 0.000000 0.000000 4.473295 -3.588558 -1.896998 47.734211 -26.415719 -15.304143 65.484305 41.084890 27.023254 0.000000 0.000000 0.000000 
-0.022510 0.979760 0.188111 1.642849 -1.693052 8.920823 1.320305 -2.269444 -29.499542 -5.236208 1.394730 37.819437 4.668790 7.337300 -9.472703 0.000000 0.000000 0.000000 -0.935674 2.794266 -28.613205 4.171149 -0.041853 40.884341 -7.203734 -17.801187 -3.098644 0.000000 0.000000 0.000000 -0.698274 -0.411778 13.401009 -0.512254 0.374478 -7.439599 -0.000478 -1.516228 13.709374 -3.347554 3.097899 -29.270672 0.000000 0.000000 0.000000 -9.223098 3.100859 -1.800892 -45.051026 10.975050 -9.588345 -46.851505 -45.066074 23.208150 0.000000 0.000000 0.000000 5.610866 -1.896552 -1.362950 47.346667 -22.892711 -13.605934 67.032671 47.362035 32.768567 0.000000 0.000000 0.000000 
-0.026933 0.938268 0.181143 0.586085 -2.672366 9.744873 2.442668 -2.331827 -36.929431 -4.955725 1.834372 49.461093 5.602870 8.220463 -14.776363 0.000000 0.000000 0.000000 0.002509 3.880241 -35.437502 6.387170 -0.972596 50.657816 -8.547685 -21.373723 -5.813600 0.000000 0.000000 0.000000 -0.545449 -0.507352 16.292492 0.001582 0.195565 -9.029717 -0.031936 0.408886 13.668717 -2.899384 3.122895 -31.831632 0.000000 0.000000 0.000000 -11.429107 -0.558679 -0.452148 -44.613175 1.850654 -6.509431 -39.439246 -52.530575 23.039617 0.000000 0.000000 0.000000 6.782452 0.183958 -0.511870 48.354075 -16.767151 -11.544032 62.070858 54.889396 36.177336 0.000000 0.000000 0.000000 
-0.030957 0.886568 0.176253 -0.210365 -2.779768 9.109243 3.184844 -2.363163 -43.090920 -4.256210 1.735910 60.128921 5.962436 9.487402 -13.592996 0.000000 0.000000 0.000000 0.696188 4.992869 -42.071678 8.396504 -2.463301 61.733704 -9.259139 -23.403445 -6.996922 0.000000 0.000000 0.000000 -0.259842 -0.664890 19.698757 0.516344 0.021686 -9.804117 -0.645143 1.019221 13.417178 -0.478900 2.295224 -35.361091 0.000000 0.000000 0.000000 -13.140516 -7.995961 2.970996 -45.038295 -8.662430 -2.960290 -11.374177 -60.677960 9.934669 0.000000 0.000000 0.000000 8.370862 6.940764 2.377702 48.630345 -4.473048 -7.002533 38.481006 64.593195 27.384489 0.000000 0.000000 0.000000 
-0.034162 0.843208 0.176316 -0.774286 -2.720904 7.740465 3.855819 -2.230216 -45.714703 -4.140217 1.778686 66.279464 6.837058 11.921203 -13.411648 0.000000 0.000000 0.000000 0.971984 5.708064 -46.334575 10.052407 -4.344187 72.094632 -10.138949 -26.022017 -8.727993 0.000000 0.000000 0.000000 -0.377321 -0.702256 21.651037 0.978437 -0.191337 -8.425107 -0.453172 0.893083 10.030734 -2.220610 2.984146 -34.245534 0.000000 0.000000 0.000000 -16.623210 -15.610247 6.935938 -38.046633 -18.368120 0.411561 16.671351 -62.139007 -6.800866 0.000000 0.000000 0.000000 11.304078 15.400064 6.241269 40.196040 10.300098 -1.053724 -11.422905 71.810333 -5.113312 0.000000 0.000000 0.000000 
-0.036022 0.823798 0.182801 -1.025356 -4.087597 5.266922 4.444433 -1.686971 -44.005188 -3.840813 2.117146 68.115985 7.561857 13.663465 -14.894228 0.000000 0.000000 0.000000 1.744688 6.270065 -46.183972 10.710576 -4.570263 76.070617 -10.484349 -26.386551 -5.648235 0.000000 0.000000 0.000000 -0.413240 -0.670674 23.433264 0.707491 -0.060647 -10.585436 -0.191758 0.509231 10.907584 -0.822998 2.337862 -35.897483 0.000000 0.000000 0.000000 -13.967819 -21.389846 9.884772 -27.579561 -29.059213 1.972287 48.033890 -57.992576 -24.053602 0.000000 0.000000 0.000000 8.522547 22.468379 8.962371 25.530214 24.757258 1.541225 -47.746964 59.485135 -25.493054 0.000000 0.000000 0.000000 
-0.036502 0.850841 0.197498 -0.544679 -5.385232 3.669993 4.053917 -1.511493 -39.055194 -4.120498 2.640674 62.571676 8.206620 15.790385 -14.026092 0.000000 0.000000 0.000000 1.372101 5.354584 -40.161315 9.079827 -2.131224 70.714530 -9.420344 -23.456605 -4.790114 0.000000 0.000000 0.000000 -1.573042 -0.320050 21.428200 2.290851 -0.602475 -12.031408 -0.905686 1.643024 12.425583 0.679938 1.918747 -38.011009 0.000000 0.000000 0.000000 0.745856 -21.462487 7.433585 -22.946640 -39.485798 3.208533 75.115442 -50.404682 -35.728526 0.000000 0.000000 0.000000 -4.278404 23.343582 7.458820 12.135564 37.192701 0.436981 -57.971165 42.727349 -21.831168 0.000000 0.000000 0.000000 
